<?xml version="1.0" encoding="utf-8"?>
<!-- Generator: Adobe Illustrator 23.0.2, SVG Export Plug-In . SVG Version: 6.00 Build 0)  -->
<svg version="1.1" id="Layer_1" xmlns="http://www.w3.org/2000/svg" xmlns:xlink="http://www.w3.org/1999/xlink" x="0px" y="0px"
	 viewBox="0 0 166.0481 237.1827" enable-background="new 0 0 166.0481 237.1827" xml:space="preserve">
<g>
	<path d="M149.7517,56.9675c-5.6178-5.2786-11.1061-6.1809-13.9182-6.2452c-0.1578-0.0096-0.3143-0.024-0.4745-0.024H96.7243
		c-0.1696,0-0.3355,0.0146-0.5024,0.0254c-2.8198,0.0699-8.2905,0.9823-13.8901,6.2438
		c-8.7737,8.2434-14.02,23.6497-15.7001,45.9622c0.7258,0.4823,1.3928,1.0635,1.965,1.7529c1.7129,2.064,2.4111,4.7612,1.916,7.4004
		L69.1972,119.1c3.3408,5.4299,5.7181,15.4061,6.1718,27.2802c1.8746-0.1774,3.5441-0.9893,4.8074-2.2148
		c0.0455,1.1336,0.0674,2.2885,0.0382,3.4866c-0.242,9.9197-2.5722,15.1541-5.966,19.322c-0.4319,2.9609-0.9878,5.944-1.6786,8.9214
		c6.3011-5.9915,12.2422-11.6771,12.6426-28.1223c0.1883-7.7151-1.0837-14.2047-3.045-19.5902
		c-0.8447-28.9099,2.792-44.9979,6.8282-53.3923v150.0287c0,6.8301,5.5371,12.3633,12.3632,12.3633
		c6.8282,0,12.3653-5.5332,12.3653-12.3633v-90.2715h4.6347v90.2715c0,6.8301,5.5371,12.3633,12.3633,12.3633
		c6.8281,0,12.3653-5.5332,12.3653-12.3633V74.7915c4.4706,9.2976,8.4523,28.0287,6.3965,63.1672
		c-0.2578,4.4102,3.1084,8.1953,7.5195,8.4531c0.1592,0.0098,0.3164,0.0137,0.4746,0.0137c4.2041,0,7.7295-3.2813,7.9785-7.5332
		C167.9285,96.6452,162.6443,69.0817,149.7517,56.9675z M112.2407,59.3185h3.8007h3.7989l1.9004,7.5l-0.2887,0.4557
		c-1.566,1.3057-3.4844,1.9604-5.4125,1.9622c-1.9279-0.0018-3.843-0.655-5.4078-1.9578l-0.2914-0.4601L112.2407,59.3185z
		 M116.0414,123.8185l-9.5-12l5.4715-40.3214c1.2974,0.4863,2.662,0.7402,4.0266,0.7394h0.0019h0.0059
		c1.363,0,2.7253-0.2543,4.0207-0.7404l5.4734,40.3224L116.0414,123.8185z"/>
	<path d="M154.5641,13.6504c0-3.959-9.6269-7.1679-21.501-7.1679c-0.4063,0-0.8027,0.0129-1.2034,0.0203
		C127.7957,2.4836,122.2099,0,116.0417,0c-12.4258,0-22.5,10.0743-22.5,22.5c0,12.4278,10.0742,22.5,22.5,22.5
		c11.3991,0,20.8093-8.4758,22.2901-19.4688c-2.0288-0.1033-4.1691-0.3218-6.3702-0.664c-11.52-1.7908-20.4006-6.3041-20.1455-10.17
		c1.524,3.4597,10.4419,6.1193,21.247,6.1193c8.1538,0,15.2469-1.5134,18.8919-3.7429
		C153.618,16.0563,154.5641,14.8902,154.5641,13.6504z"/>
	<path d="M64.7789,52.0361l16.9142-2.5208c0,0,2.6934-5.1411,0.283-10.3271s-8.1022-2.7296-9.2607-2.0121
		c-1.1586,0.7175-9.3419,6.0529-10.7209,7.7084c-0.6962,0.8357-0.1569,2.6755,0.5477,4.2936l-9.4257,53.1876l3.6642-0.4283
		L64.7789,52.0361z"/>
	<path d="M51.7957,65.5671c1.059-1.1496,2.0441-2.5326,1.7041-3.4338c-0.6736-1.7855-5.9733-8.6242-6.7345-9.5607
		s-4.8113-4.6434-8.3329-1.0033c-3.5216,3.6402-2.7595,8.7236-2.7595,8.7236l13.4219,7.0167l-6.4075,36.2753l3.0945-0.3617
		L51.7957,65.5671z"/>
	<path d="M40.1163,80.7651c0.9371-1.3471,2.4401-3.7939,1.9668-5.0485c-0.6736-1.7855-12.1808-10.1444-15.7025-6.5043
		c-3.5216,3.6402-2.1244,4.6638-2.1244,4.6638l13.4285,6.9384L33.4027,104.67l2.8953-0.3384L40.1163,80.7651z"/>
	<path d="M70.2975,175.9665c5.5511-23.3205,2.5776-47.7389-3.4251-56.4058l1.4781-7.8833c0.8445-4.504-2.9185-8.5363-7.4701-8.0043
		l-31.6618,3.7007c-3.0943,0.3618-5.5467,2.7808-5.9507,5.8699l-0.0231,0.1767l33.5217-3.8679l0.2285,1.9863l-34.0176,3.925
		l-0.5233,3.9996l28.4794-3.286l0.2285,1.9863l-28.9753,3.3432l-0.9656,7.3796c-5.0596,4.0621-10.85,12.0291-11.4141,15.4857
		l-9.6896,59.3804c-0.7954,4.8743,2.5418,9.5134,7.4163,10.3087l2.4899,0.4063l-1.842,14.0781
		c-0.5269,4.0265,2.5714,7.6139,6.6321,7.6783l24.3625,0.3867c3.3114,0.0526,6.1786-2.2888,6.7889-5.5438l1.6837-8.98
		C55.4608,217.5641,64.7801,199.1451,70.2975,175.9665z"/>
</g>
</svg>
